HIERARCHY
ROOT Hips
{
	OFFSET 0.000000 0.000000 0.000000
	CHANNELS 6 Xposition Yposition Zposition Xrotation Yrotation Zrotation
	JOINT LeftUpLeg_virtual
	{
		OFFSET 0.000000 0.000000 0.000000
		CHANNELS 3 Xrotation Yrotation Zrotation
		JOINT LeftUpLeg
		{
			OFFSET 10.205400 -3.823500 0.155100
			CHANNELS 3 Xrotation Yrotation Zrotation
			JOINT LeftLeg
			{
				OFFSET 0.708757 -12.982077 0.567790
				CHANNELS 3 Xrotation Yrotation Zrotation
				JOINT LeftFoot
				{
					OFFSET -0.708756 -10.717838 -2.184338
					CHANNELS 3 Xrotation Yrotation Zrotation
					JOINT LeftToeBase
					{
						OFFSET 0.108149 -7.191104 7.560241
						CHANNELS 3 Xrotation Yrotation Zrotation
						JOINT LeftToe_End
						{
							OFFSET 0.070230 0.081724 4.490308
							CHANNELS 3 Xrotation Yrotation Zrotation
							End Site
							{
								OFFSET 0 0 0
							}
						}
					}
				}
			}
		}
	}
	JOINT RightUpLeg_virtual
	{
		OFFSET 0.000000 0.000000 0.000000
		CHANNELS 3 Xrotation Yrotation Zrotation
		JOINT RightUpLeg
		{
			OFFSET -10.205400 -3.823500 0.005500
			CHANNELS 3 Xrotation Yrotation Zrotation
			JOINT RightLeg
			{
				OFFSET -0.708756 -12.982134 0.610632
				CHANNELS 3 Xrotation Yrotation Zrotation
				JOINT RightFoot
				{
					OFFSET 0.708754 -10.717769 -1.945823
					CHANNELS 3 Xrotation Yrotation Zrotation
					JOINT RightToeBase
					{
						OFFSET -0.108140 -7.191069 7.372968
						CHANNELS 3 Xrotation Yrotation Zrotation
						JOINT RightToe_End
						{
							OFFSET -0.070227 0.081735 4.479403
							CHANNELS 3 Xrotation Yrotation Zrotation
							End Site
							{
								OFFSET 0 0 0
							}
						}
					}
				}
			}
		}
	}
	JOINT Spine_virtual
	{
		OFFSET 0.000000 0.000000 0.000000
		CHANNELS 3 Xrotation Yrotation Zrotation
		JOINT Spine
		{
			OFFSET 0.000000 6.876099 0.125700
			CHANNELS 3 Xrotation Yrotation Zrotation
			JOINT Spine1
			{
				OFFSET 0.000000 5.730043 0.104720
				CHANNELS 3 Xrotation Yrotation Zrotation
				JOINT Spine1_split
				{
					OFFSET 0.000000 5.730043 0.104720
					CHANNELS 3 Xrotation Yrotation Zrotation
					JOINT Spine2
					{
						OFFSET 0.000000 5.730043 0.104720
						CHANNELS 3 Xrotation Yrotation Zrotation
						JOINT Neck_virtual
						{
							OFFSET 0.000000 0.000000 0.000000
							CHANNELS 3 Xrotation Yrotation Zrotation
							JOINT Neck
							{
								OFFSET 0.000000 10.314075 0.188496
								CHANNELS 3 Xrotation Yrotation Zrotation
								JOINT Head
								{
									OFFSET 0.000000 7.643700 -2.377400
									CHANNELS 3 Xrotation Yrotation Zrotation
									JOINT HeadTop_End
									{
										OFFSET 0.000000 43.788605 -13.619600
										CHANNELS 3 Xrotation Yrotation Zrotation
										End Site
										{
											OFFSET 0 0 0
										}
									}
								}
							}
						}
						JOINT LeftShoulder_virtual
						{
							OFFSET 0.000000 0.000000 0.000000
							CHANNELS 3 Xrotation Yrotation Zrotation
							JOINT LeftShoulder
							{
								OFFSET 2.196100 4.412489 0.087492
								CHANNELS 3 Xrotation Yrotation Zrotation
								JOINT LeftShoulder_split
								{
									OFFSET 2.196100 4.412489 0.087492
									CHANNELS 3 Xrotation Yrotation Zrotation
									JOINT LeftArm
									{
										OFFSET 8.771219 -2.981674 -0.026999
										CHANNELS 3 Xrotation Yrotation Zrotation
										JOINT LeftForeArm
										{
											OFFSET 8.512804 0.000000 -0.000000
											CHANNELS 3 Xrotation Yrotation Zrotation
											JOINT LeftHand
											{
												OFFSET 18.484802 0.000000 -0.000000
												CHANNELS 3 Xrotation Yrotation Zrotation
												End Site
												{
													OFFSET 0 0 0
												}
											}
										}
									}
								}
							}
						}
						JOINT RightShoulder_virtual
						{
							OFFSET 0.000000 0.000000 0.000000
							CHANNELS 3 Xrotation Yrotation Zrotation
							JOINT RightShoulder
							{
								OFFSET -2.196100 4.412496 0.070690
								CHANNELS 3 Xrotation Yrotation Zrotation
								JOINT RightShoulder_split
								{
									OFFSET -2.196100 4.412496 0.070690
									CHANNELS 3 Xrotation Yrotation Zrotation
									JOINT RightArm
									{
										OFFSET -8.771282 -2.981682 -0.094208
										CHANNELS 3 Xrotation Yrotation Zrotation
										JOINT RightForeArm
										{
											OFFSET -8.494598 0.000000 0.000000
											CHANNELS 3 Xrotation Yrotation Zrotation
											JOINT RightHand
											{
												OFFSET -18.483803 0.000000 0.000001
												CHANNELS 3 Xrotation Yrotation Zrotation
												End Site
												{
													OFFSET 0 0 0
												}
											}
										}
									}
								}
							}
						}
					}
				}
			}
		}
	}
}
MOTION
Frames: 5
Frame Time: 0.03333333
-0.735825 32.793018 0.668663 0.000000 0.000000 0.000000 -47.260370 -82.709301 -45.066814 -7.389928 16.184517 8.794489 27.739673 -1.765066 1.434488 -14.368981 3.962596 -8.351686 -3.454806 -0.486467 -0.486799 0.000000 0.000000 0.000000 -34.332513 -82.216107 -33.197704 1.436906 -23.921144 -4.039265 22.531754 11.186900 -12.774598 -14.769574 -2.207510 10.357278 2.244005 -0.441889 -0.087237 0.000000 0.000000 0.000000 -47.744221 -81.621143 -46.394241 3.970168 0.381887 1.811878 3.670501 0.254093 1.925128 0.563362 5.851832 -0.555070 0.000000 0.000000 0.000000 3.774494 -0.277476 1.552845 -6.487776 6.727655 -3.247944 5.439029 36.074061 -3.091135 0.000000 0.000000 0.000000 5.315974 0.288953 1.631667 0.791469 5.093941 0.286181 -0.881629 0.428183 -0.601586 8.628936 -80.430259 -54.473586 -1.973176 -23.577576 -0.418656 0.000000 0.000000 0.000000 6.431484 0.845008 1.121898 1.181527 3.590009 7.497056 2.931837 3.839761 -0.465613 13.608292 27.956367 59.333157 1.193687 30.890606 0.072650 0.000000 0.000000 0.000000 
-0.676140 32.775261 0.676504 0.000000 0.000000 0.000000 -47.968903 -82.763970 -45.751418 -7.283435 16.059125 8.753770 28.135957 -2.144236 1.559585 -14.618924 3.854977 -8.496690 -3.335753 -0.444102 -0.564163 0.000000 0.000000 0.000000 -33.372789 -81.965808 -32.246365 1.418584 -23.819288 -4.044532 22.470042 11.036806 -12.773098 -14.526661 -2.335247 10.095592 2.343668 -0.476394 -0.007739 0.000000 0.000000 0.000000 -47.686571 -81.540164 -46.416012 3.971523 0.237474 1.858759 3.635743 0.233368 1.935697 0.723955 4.621989 -0.257127 0.000000 0.000000 0.000000 3.743224 -0.240767 1.586971 -6.652989 6.648357 -3.259808 5.386256 35.876026 -3.224709 0.000000 0.000000 0.000000 5.312874 0.284191 1.685520 0.759346 4.922584 0.221273 -0.875309 0.484315 -0.333192 11.477113 -80.503833 -51.829221 -2.244826 -23.839023 -0.771332 0.000000 0.000000 0.000000 6.453061 0.876142 1.209337 1.281890 3.375543 7.370413 2.994022 3.826490 -0.620805 13.778217 28.018904 59.095992 1.228052 31.668855 -0.094700 0.000000 0.000000 0.000000 
-0.600596 32.765415 0.652287 0.000000 0.000000 0.000000 -48.959093 -82.783409 -46.748653 -7.281984 16.124381 8.694757 28.696777 -2.578707 1.836499 -14.966073 3.595403 -8.870776 -3.219792 -0.353610 -0.595623 0.000000 0.000000 0.000000 -33.583183 -81.632563 -32.417140 1.490383 -23.705739 -4.040627 22.642847 11.054715 -12.823916 -14.242298 -2.372993 10.409848 1.999169 -0.559436 -0.174520 0.000000 0.000000 0.000000 -47.787811 -81.485530 -46.560607 4.084351 -0.057022 1.986063 3.611782 0.140547 1.938337 0.748249 3.637109 -0.099992 0.000000 0.000000 0.000000 3.800818 -0.281535 1.665434 -6.916071 6.690471 -3.398879 5.242947 35.943348 -3.438408 0.000000 0.000000 0.000000 5.408865 0.206023 1.753943 0.762677 4.831451 0.164477 -0.817041 0.953666 -0.437577 16.619980 -80.498752 -47.121274 -2.356891 -24.440276 -1.092284 0.000000 0.000000 0.000000 6.447240 0.802475 1.321156 1.404640 3.104631 7.115696 3.088426 4.092717 -0.593992 13.913761 27.887413 59.171752 1.244550 33.203155 -0.249348 0.000000 0.000000 0.000000 
-0.505828 32.755718 0.603203 0.000000 0.000000 0.000000 -49.584236 -82.727374 -47.365374 -7.380285 16.516401 8.578588 29.121154 -2.887616 2.183465 -15.449678 3.255929 -9.264395 -3.100811 -0.243546 -0.574814 0.000000 0.000000 0.000000 -34.514227 -81.363140 -33.270039 1.590316 -23.469464 -4.097402 22.963531 11.266269 -12.901473 -14.103909 -2.267876 11.147592 1.576682 -0.639968 -0.508184 0.000000 0.000000 0.000000 -48.325986 -81.508185 -47.055540 4.266847 -0.429381 2.111098 3.598715 0.048090 1.930635 0.778453 2.972059 -0.172345 0.000000 0.000000 0.000000 3.925095 -0.354639 1.756425 -7.174016 6.816781 -3.653901 4.994467 36.201908 -3.700698 0.000000 0.000000 0.000000 5.549851 0.115440 1.829021 0.786897 4.829659 0.118677 -0.786847 1.538408 -0.744534 22.682254 -80.428947 -41.551650 -2.250865 -24.957569 -1.306605 0.000000 0.000000 0.000000 6.420813 0.689052 1.428440 1.509545 2.896241 6.839815 3.262259 4.570819 -0.498979 13.866169 27.589009 59.534033 1.232789 34.883634 -0.373500 0.000000 0.000000 0.000000 
-0.400322 32.756954 0.539848 0.000000 0.000000 0.000000 -50.205189 -82.743418 -47.923274 -7.492038 17.156052 8.374635 29.218036 -3.044484 2.562939 -15.934649 2.895010 -9.688908 -3.077593 -0.118750 -0.467193 0.000000 0.000000 0.000000 -35.484178 -81.290780 -34.118120 1.839684 -23.041824 -4.187747 23.122963 11.628156 -13.025541 -14.339434 -2.081051 11.768854 1.577173 -0.665069 -0.871764 0.000000 0.000000 0.000000 -49.965364 -81.702340 -48.542144 4.456580 -0.779948 2.110704 3.606032 0.033912 1.919643 0.997819 2.704815 -0.294743 0.000000 0.000000 0.000000 4.086388 -0.381228 1.828990 -7.308108 7.016774 -3.929671 4.637612 36.644945 -4.016648 0.000000 0.000000 0.000000 5.676847 0.092518 1.894118 0.815193 4.889665 0.036953 -0.888017 1.828672 -1.155934 27.519554 -80.289106 -37.025680 -1.853701 -25.245860 -1.329702 0.000000 0.000000 0.000000 6.379332 0.612395 1.510779 1.578750 2.785200 6.716454 3.349745 5.108871 -0.460485 13.468306 27.109279 60.130936 1.191703 36.258483 -0.451634 0.000000 0.000000 0.000000 
